<?xml version="1.0" standalone="no"?>
<!DOCTYPE svg PUBLIC "-//W3C//DTD SVG 20010904//EN"
 "http://www.w3.org/TR/2001/REC-SVG-20010904/DTD/svg10.dtd">
<svg version="1.0" xmlns="http://www.w3.org/2000/svg"
 width="2000.000000pt" height="1500.000000pt" viewBox="0 0 2000.000000 1500.000000"
 preserveAspectRatio="xMidYMid meet">

<g transform="translate(0.000000,1500.000000) scale(0.100000,-0.100000)"
fill="#000000" stroke="none">
<path d="M9790 12489 c-1452 -53 -2827 -761 -3735 -1924 -104 -133 -310 -440
-396 -590 -314 -549 -535 -1211 -613 -1835 -52 -417 -52 -863 0 -1280 78 -624
300 -1288 613 -1835 223 -388 548 -807 857 -1105 853 -823 1907 -1300 3094
-1400 161 -14 619 -14 780 0 648 55 1221 210 1785 484 234 114 361 186 580
331 1343 887 2171 2356 2234 3962 37 950 -186 1868 -651 2683 -84 146 -290
454 -393 585 -689 883 -1662 1517 -2729 1780 -483 119 -915 162 -1426 144z
m710 -2144 c378 -45 795 -151 1168 -297 93 -37 102 -43 102 -67 0 -14 -18
-210 -40 -436 -22 -225 -40 -418 -40 -427 0 -13 -40 3 -182 71 -293 141 -509
222 -752 282 -266 65 -481 90 -766 90 -341 0 -576 -52 -777 -173 -74 -44 -164
-143 -202 -220 -108 -220 -69 -545 85 -717 153 -170 379 -278 1044 -496 429
-142 630 -219 859 -332 260 -129 417 -237 576 -397 217 -218 313 -393 376
-686 20 -92 23 -134 23 -330 0 -249 -12 -334 -75 -522 -180 -536 -663 -889
-1379 -1007 -191 -31 -303 -41 -565 -48 -416 -10 -766 29 -1215 138 -330 79
-720 214 -720 248 1 36 107 892 112 896 3 3 65 -22 138 -55 478 -216 1010
-369 1419 -410 133 -13 442 -13 551 0 272 33 516 138 635 273 103 117 149 257
148 452 -1 220 -56 366 -189 501 -176 179 -421 294 -1114 524 -547 181 -877
329 -1113 497 -98 71 -264 233 -335 328 -100 134 -172 307 -208 500 -27 142
-27 492 0 615 42 195 108 355 211 510 69 104 259 293 370 366 291 193 641 306
1066 343 153 14 629 5 789 -14z"/>
</g>
</svg>
